<?xml version="1.0" standalone="no"?>
<!DOCTYPE svg PUBLIC "-//W3C//DTD SVG 20010904//EN"
 "http://www.w3.org/TR/2001/REC-SVG-20010904/DTD/svg10.dtd">
<svg version="1.0" xmlns="http://www.w3.org/2000/svg"
 width="1280.000000pt" height="670.000000pt" viewBox="0 0 1280.000000 670.000000"
 preserveAspectRatio="xMidYMid meet">
<metadata>
Created by potrace 1.15, written by Peter Selinger 2001-2017
</metadata>
<g transform="translate(0.000000,670.000000) scale(0.100000,-0.100000)"
fill="#000000" stroke="none">
<path d="M4640 6694 c-14 -2 -77 -11 -140 -20 -63 -8 -180 -28 -260 -44 -112
-23 -172 -29 -263 -29 -94 0 -126 -4 -155 -18 -42 -20 -52 -55 -31 -104 6 -16
9 -32 5 -36 -3 -3 -11 8 -17 26 -20 57 -77 61 -110 7 -11 -19 -27 -31 -40 -31
-16 0 -25 -9 -34 -34 -6 -19 -17 -37 -23 -39 -17 -5 -15 -32 4 -54 33 -36 43
-157 28 -343 -39 -470 46 -599 385 -582 64 3 170 17 236 30 79 17 171 27 270
32 212 9 312 22 359 48 114 63 148 226 111 522 -21 166 -45 411 -45 464 0 32
7 51 26 73 35 43 30 86 -14 111 -27 16 -57 20 -150 23 -65 1 -128 1 -142 -2z
m-121 -355 c63 -11 140 -19 172 -17 56 3 59 2 63 -22 14 -72 39 -371 40 -477
1 -146 -1 -149 -97 -164 -59 -9 -69 -8 -84 7 -16 15 -35 16 -198 10 -161 -5
-337 -20 -494 -42 l-53 -7 5 -42 6 -43 -37 9 c-44 9 -77 45 -91 97 -17 58 -14
74 8 67 15 -4 25 2 38 22 16 25 18 52 17 279 l0 251 85 11 c47 7 136 24 196
38 156 36 256 53 285 49 14 -3 76 -14 139 -26z"/>
<path d="M8775 5565 c-44 -8 -135 -30 -203 -49 l-124 -36 -96 17 c-117 20
-150 15 -227 -36 -33 -22 -64 -37 -69 -34 -5 4 -6 1 -2 -5 3 -6 -17 -30 -45
-54 -85 -71 -236 -248 -275 -320 -41 -79 -74 -170 -74 -206 0 -15 -24 -59 -58
-106 -33 -45 -91 -128 -130 -186 -40 -58 -147 -205 -239 -326 -189 -250 -266
-369 -267 -417 -1 -22 -24 -68 -70 -140 -38 -59 -71 -105 -73 -103 -3 2 2 15
10 28 10 16 18 79 27 208 6 102 15 196 20 210 5 14 16 86 25 160 38 315 119
733 184 949 17 57 31 110 31 118 0 48 -91 85 -252 102 -269 30 -1089 -18
-1174 -69 l-32 -18 -6 36 c-4 28 -15 43 -42 60 -33 22 -37 22 -60 7 -55 -36
-56 -43 -43 -287 13 -255 7 -643 -15 -878 -36 -389 -44 -673 -40 -1490 0 -107
1 -287 1 -400 0 -126 7 -273 18 -380 22 -211 21 -314 -6 -840 -28 -553 -29
-725 -6 -767 9 -18 27 -37 38 -44 29 -15 76 6 95 43 8 16 18 28 22 26 4 -2 34
-17 67 -33 l60 -30 200 0 c110 0 261 6 335 13 74 8 232 17 350 22 240 9 313
20 347 52 39 37 38 53 -15 161 -64 130 -96 258 -148 596 -22 145 -24 180 -15
210 19 59 25 329 12 621 -6 151 -14 345 -16 430 -4 148 -23 289 -45 330 -6 11
-19 24 -30 30 -16 8 -22 6 -34 -12 -24 -38 -34 -103 -46 -303 -8 -129 -15
-195 -24 -205 -8 -8 -16 -42 -19 -75 -6 -69 8 -374 23 -515 6 -52 15 -161 20
-241 5 -80 14 -158 19 -172 6 -15 21 -94 35 -176 34 -202 72 -369 107 -471 16
-47 32 -93 35 -102 5 -15 0 -18 -35 -18 -22 0 -41 4 -41 9 0 10 -21 20 -69 31
-41 10 -651 -6 -769 -20 -46 -5 -98 -14 -115 -21 -41 -14 -92 3 -83 28 4 8 11
59 16 112 18 180 42 294 65 313 54 42 70 222 62 693 -7 354 -23 725 -52 1180
-31 495 -45 752 -55 1050 -15 420 -36 697 -74 990 -8 61 -18 168 -21 239 -6
121 -5 128 12 121 41 -16 136 -25 259 -25 187 0 703 29 725 40 17 10 265 -2
275 -13 2 -2 -5 -30 -16 -63 -12 -32 -30 -95 -41 -139 -43 -169 -36 -154 -72
-148 -47 7 -83 -25 -104 -95 -16 -52 -18 -109 -18 -602 1 -677 10 -770 72
-770 20 0 42 42 54 106 11 53 18 66 77 126 36 37 67 66 68 65 1 -1 -4 -38 -11
-82 -7 -44 -12 -81 -11 -83 2 -1 28 50 59 113 52 107 59 116 97 131 30 12 62
43 129 123 230 277 612 782 787 1043 144 214 205 289 229 282 11 -3 45 -13 75
-21 41 -11 105 -15 255 -15 211 0 357 13 624 58 84 14 156 23 159 20 6 -7 -41
-79 -177 -270 -105 -148 -106 -149 -109 -113 -2 24 -11 42 -25 52 -69 49 -161
-26 -400 -325 -77 -96 -170 -204 -206 -240 -45 -45 -114 -138 -216 -293 -82
-125 -155 -227 -162 -227 -46 0 -205 -264 -440 -730 -99 -197 -123 -253 -123
-287 0 -23 4 -44 9 -47 12 -8 -10 -108 -43 -190 -29 -73 -29 -110 2 -118 18
-5 62 22 62 39 0 4 16 34 34 67 l34 58 23 -58 c16 -44 22 -77 20 -126 -1 -60
3 -77 43 -166 101 -223 158 -369 162 -412 8 -75 54 -269 85 -354 45 -123 127
-284 240 -466 175 -284 311 -564 295 -607 -10 -24 -93 -12 -296 46 -224 63
-307 81 -369 81 -46 0 -50 2 -56 29 -4 19 0 39 15 63 20 34 20 38 5 109 -40
194 -198 602 -374 964 -148 304 -253 455 -317 455 -26 0 -35 11 -86 93 -87
143 -158 227 -158 187 0 -5 15 -33 34 -62 18 -29 55 -96 81 -148 47 -93 48
-97 46 -176 -4 -131 43 -296 144 -510 79 -166 104 -232 103 -272 0 -46 176
-442 344 -774 l110 -216 80 -31 c203 -81 437 -131 505 -108 47 15 58 55 21 81
-21 15 -21 16 -3 18 11 0 27 0 35 0 265 -26 355 73 276 305 -25 74 -138 311
-274 573 -58 111 -87 208 -103 340 -22 188 -97 440 -203 684 -87 203 -271 596
-277 596 -9 0 -19 -54 -19 -100 0 -21 7 -73 15 -116 16 -83 13 -109 -7 -53 -6
19 -31 73 -55 121 l-44 87 101 201 c112 224 291 520 356 592 24 25 71 88 104
139 38 58 72 98 88 105 49 20 215 212 446 514 61 80 167 211 236 291 376 439
465 553 527 677 26 52 38 91 41 131 4 54 2 61 -26 92 l-30 34 -191 0 c-177 0
-191 1 -191 18 0 31 -27 73 -57 86 -40 20 -165 22 -258 6z m610 -267 c-4 -13
-10 -26 -14 -30 -3 -3 -78 -3 -166 1 -118 5 -148 9 -115 14 122 19 238 34 268
36 30 1 33 -1 27 -21z m-1390 -100 c-71 -93 -285 -327 -285 -312 0 17 49 94
99 156 53 66 254 268 266 268 3 0 -33 -51 -80 -112z m-2381 -1873 c9 -137 20
-338 26 -445 6 -107 12 -215 15 -240 l5 -45 -20 33 c-11 18 -26 35 -34 38 -21
8 -30 286 -21 629 4 157 9 285 10 283 2 -2 10 -115 19 -253z m2066 -2986 c0
-6 -4 -7 -10 -4 -5 3 -10 11 -10 16 0 6 5 7 10 4 6 -3 10 -11 10 -16z"/>
<path d="M11315 5503 c-168 -11 -562 -46 -569 -51 -5 -3 -190 -9 -410 -13
-337 -7 -415 -11 -491 -27 -57 -12 -96 -16 -107 -11 -32 17 -83 10 -105 -13
-32 -36 -40 -57 -52 -138 -32 -224 -36 -344 -36 -1125 1 -901 13 -1263 75
-2200 11 -165 29 -475 40 -690 22 -440 45 -724 62 -772 12 -33 38 -49 71 -44
12 2 17 -5 17 -24 0 -57 43 -233 72 -293 38 -81 70 -102 155 -102 76 0 358 23
691 55 139 14 416 39 615 55 199 17 432 37 517 45 85 8 161 15 169 15 9 0 12
11 9 40 -3 37 -1 41 22 46 302 67 329 104 337 469 7 290 -9 538 -37 602 -11
26 -29 55 -40 63 -15 11 -21 34 -27 94 -7 69 -11 81 -34 99 -62 46 -232 39
-694 -28 -229 -34 -366 -48 -481 -52 -251 -9 -315 16 -329 124 -6 52 -5 58 16
74 21 16 24 27 27 116 3 76 -2 128 -22 233 -27 139 -33 215 -17 224 26 16 361
28 907 31 l611 4 7 -58 c12 -103 56 -153 120 -137 48 12 66 58 66 171 0 55 11
186 24 290 61 475 57 686 -14 825 -23 45 -81 97 -117 106 -14 4 -119 4 -232 1
-199 -6 -369 -21 -556 -51 -49 -8 -137 -20 -194 -26 -161 -18 -250 -47 -453
-148 -5 -2 -8 1 -8 7 0 7 11 16 24 21 21 8 25 17 31 72 6 57 -5 271 -21 405
-5 44 -4 52 12 57 46 14 175 25 366 32 l207 7 6 28 c8 36 -33 29 445 75 325
30 488 63 525 105 15 16 20 40 23 113 4 92 4 93 29 88 79 -15 114 78 163 438
12 85 30 209 41 275 39 238 36 307 -14 352 -34 31 -62 34 -196 17 -100 -13
-137 -14 -195 -5 -39 6 -117 16 -172 21 -56 5 -180 27 -277 50 -275 63 -398
76 -602 63z m-1120 -113 c-103 -9 -283 -38 -304 -50 -8 -4 44 -5 116 -3 l131
6 -5 -25 c-6 -30 8 -42 72 -61 28 -9 45 -16 40 -16 -6 -1 -85 -14 -175 -31
-90 -16 -165 -30 -166 -30 -1 0 0 10 3 23 5 21 5 21 -13 -3 -9 -14 -18 -26
-18 -27 -1 0 -17 -4 -37 -8 l-36 -7 -6 74 c-3 41 -12 91 -21 111 -14 36 -14
37 7 42 52 11 83 12 287 12 170 0 196 -1 125 -7z m682 -56 c-4 -4 -57 -13
-119 -20 -121 -14 -255 -16 -353 -5 l-60 7 75 11 c81 11 467 17 457 7z m1793
-106 l-1 -43 -19 35 c-18 35 -17 40 18 49 1 1 2 -18 2 -41z m-971 -22 c-6 -6
-179 -31 -349 -51 -199 -23 -537 -40 -595 -30 l-50 8 60 9 c416 59 493 66 714
67 123 1 222 -1 220 -3z m646 -41 c39 -4 112 -13 163 -20 58 -9 103 -10 123
-5 l30 9 -6 -47 c-12 -84 -66 -436 -72 -467 -5 -27 -8 -23 -30 45 -44 134 -97
173 -147 107 -19 -26 -21 -44 -24 -210 -2 -100 1 -230 5 -290 l9 -107 -40 -11
c-22 -6 -51 -8 -65 -4 -14 3 -55 12 -91 19 -36 8 -57 14 -48 15 9 0 30 13 47
27 40 33 43 83 7 119 -45 45 -154 48 -736 21 -184 -9 -371 -20 -415 -26 -81
-11 -187 -40 -235 -65 -47 -24 -108 -100 -125 -157 -18 -57 -35 -231 -29 -300
2 -24 8 -133 14 -243 18 -336 31 -498 41 -545 24 -104 59 -149 95 -120 8 7 21
37 30 67 11 38 22 57 37 62 12 5 49 30 82 56 146 114 376 177 510 140 92 -25
304 -38 437 -28 137 11 188 31 202 80 9 28 15 33 54 39 24 4 67 3 95 -2 76
-13 82 -30 82 -229 0 -206 -9 -273 -37 -277 -12 -2 -30 -16 -42 -31 -19 -26
-21 -42 -21 -163 l0 -134 -31 0 c-182 0 -1302 -33 -1374 -40 -170 -17 -211
-40 -250 -137 -32 -78 -40 -317 -16 -479 8 -60 20 -154 26 -209 18 -171 60
-290 116 -334 24 -19 40 -21 168 -21 118 0 385 20 626 46 51 5 56 4 65 -18 21
-50 138 -48 346 7 51 13 120 25 152 25 l57 0 0 -97 c0 -98 12 -217 49 -493 17
-127 25 -217 22 -257 -2 -20 -100 -44 -206 -49 -55 -3 -299 -9 -542 -12 -413
-7 -442 -6 -437 10 10 33 -32 43 -171 42 -246 -2 -673 -70 -720 -114 l-22 -21
-25 33 c-35 45 -77 130 -103 208 l-22 65 18 115 c25 161 22 193 -8 78 -14 -54
-29 -98 -33 -98 -15 0 -20 84 -30 495 -5 231 -14 587 -20 790 -5 204 -15 564
-21 800 -14 510 -16 1892 -3 2020 l9 90 70 13 c54 11 198 15 625 16 587 1 630
4 960 57 218 35 621 127 660 149 8 6 33 8 55 5 22 -2 72 -7 110 -10z m-2521
-307 c-8 -91 -14 -100 -14 -20 0 33 -3 67 -6 76 -4 11 -1 16 10 16 14 0 15
-10 10 -72z m1036 -881 c0 -2 -13 -13 -30 -25 l-30 -23 0 26 c0 21 5 25 30 25
17 0 30 -1 30 -3z m-895 -3478 c84 -215 128 -240 384 -220 117 10 507 31 563
31 15 0 18 -5 13 -20 -3 -10 -1 -29 5 -40 7 -12 10 -23 8 -25 -2 -1 -211 -22
-465 -46 -299 -28 -466 -40 -472 -34 -14 14 -38 114 -56 232 -14 95 -20 193
-12 193 2 0 16 -32 32 -71z"/>
<path d="M4752 5213 c-10 -16 -24 -41 -29 -58 -9 -29 -13 -30 -94 -40 -46 -6
-110 -7 -143 -3 -253 33 -744 49 -845 27 -82 -17 -87 -47 -12 -69 30 -8 44 2
19 14 -7 3 14 3 47 0 123 -12 137 -25 43 -43 -163 -31 -248 -79 -248 -140 0
-48 30 -72 105 -83 19 -3 20 -14 27 -278 4 -151 15 -437 24 -635 14 -280 18
-553 18 -1226 1 -631 4 -870 12 -880 7 -8 17 -91 23 -189 14 -210 28 -375 41
-490 5 -47 14 -179 20 -295 6 -116 13 -229 16 -252 6 -40 9 -43 39 -43 29 0
34 -5 49 -45 23 -58 97 -124 194 -172 67 -34 84 -38 151 -38 86 0 147 24 211
81 33 30 95 52 128 45 7 -1 28 3 47 9 30 10 48 7 144 -24 203 -66 347 -79 387
-35 20 22 19 25 -30 214 -38 148 -74 359 -99 595 -12 108 -12 116 5 128 16 12
18 30 18 165 0 161 -10 353 -35 687 -14 185 -14 236 -1 520 9 173 20 351 26
395 15 124 41 585 47 843 6 231 6 233 -17 264 -23 31 -23 33 -19 297 5 346 0
572 -11 546 -5 -11 -9 -36 -10 -55 l-1 -35 -22 39 c-12 21 -28 48 -34 60 -7
11 -13 33 -13 48 0 24 5 28 38 34 20 3 48 13 61 22 l25 15 -25 9 c-13 5 -46 8
-72 7 -44 -3 -49 0 -63 27 -26 50 -45 64 -85 64 -30 0 -42 -6 -57 -27z m-892
-153 c-20 -13 -40 -13 -40 0 0 6 12 10 28 10 21 0 24 -2 12 -10z m817 -136
c-10 -10 -205 -32 -377 -43 -251 -16 -353 -20 -348 -16 11 12 159 35 283 44
77 6 156 13 175 15 65 6 273 6 267 0z m-902 -116 c-2 -13 -12 -84 -20 -158 -9
-74 -17 -136 -19 -138 -2 -1 -7 41 -11 95 -4 54 -11 118 -15 143 -7 43 -8 41
-10 -30 -2 -41 -2 -95 -1 -120 2 -25 0 -42 -4 -39 -5 6 -21 105 -37 234 -3 17
4 21 42 26 81 11 81 11 75 -13z m463 -75 c212 -6 396 -14 409 -17 l23 -6 0
-276 c0 -230 -2 -276 -14 -280 -19 -7 -43 -80 -56 -169 -16 -117 -11 -652 10
-1020 11 -187 25 -485 31 -662 26 -692 -37 -1246 -183 -1625 -16 -43 -34 -78
-39 -78 -5 0 -26 7 -47 16 -70 30 -259 93 -335 110 l-75 18 -7 120 c-12 222
-35 586 -70 1096 -78 1142 -100 1996 -68 2672 5 120 8 136 21 126 10 -9 127
-16 400 -25z m682 -778 c-18 -194 -19 -200 -15 -85 3 121 26 340 32 310 2 -8
-6 -109 -17 -225z m-163 -2950 c-6 -180 -18 -244 -60 -307 -21 -30 -86 -82
-94 -75 -1 2 11 41 28 88 32 88 88 311 110 439 18 102 22 61 16 -145z m161
-431 c26 -5 32 -13 45 -58 8 -28 13 -52 11 -54 -2 -3 -188 44 -257 64 -15 5
-11 12 26 44 24 21 54 59 68 84 l24 45 27 -59 c22 -50 32 -61 56 -66z m-884
80 c27 -9 43 -20 37 -23 -13 -9 -33 -70 -26 -82 3 -4 26 -15 50 -25 44 -16 45
-17 23 -29 -20 -10 -29 -7 -67 19 -53 37 -67 58 -79 114 -11 49 -9 50 62 26z
m255 -193 c20 -13 -40 -28 -86 -23 -54 7 -23 23 57 30 8 1 21 -2 29 -7z"/>
<path d="M539 5067 c-20 -8 -52 -23 -70 -34 -22 -14 -74 -27 -144 -37 -136
-19 -305 -56 -305 -66 0 -5 32 -11 70 -15 39 -4 69 -10 68 -14 -51 -94 -82
-215 -99 -379 -11 -109 -11 -180 7 -842 5 -190 2 -297 -16 -555 -21 -294 -22
-366 -17 -880 9 -838 44 -1426 103 -1737 l5 -27 -47 14 c-27 8 -50 13 -52 10
-9 -8 106 -65 164 -81 50 -13 64 -21 68 -40 7 -28 36 -32 36 -6 0 29 60 17 61
-12 1 -18 2 -19 6 -2 4 16 11 18 56 12 384 -47 613 -59 1252 -61 343 -1 612
-7 694 -14 146 -14 384 -4 595 25 61 8 148 19 193 24 92 10 104 15 185 77 59
45 79 84 60 120 -5 10 -12 180 -15 378 -7 444 -26 616 -87 778 -27 73 -95 148
-159 175 -115 50 -239 41 -666 -48 -339 -71 -843 -156 -855 -144 -17 17 -32
325 -25 499 9 252 63 946 106 1365 38 376 118 957 138 1006 6 14 22 24 47 29
54 10 111 41 119 64 9 29 -12 61 -44 67 -27 6 -28 8 -23 57 2 29 6 53 7 55 1
2 35 6 74 9 40 3 68 10 64 14 -4 4 -46 19 -93 33 -47 13 -84 28 -83 33 1 4
-17 8 -40 8 -23 1 -100 13 -172 28 -232 47 -496 77 -685 77 -79 0 -121 5 -170
21 -83 27 -258 36 -311 16z m-201 -196 c-2 -9 -14 -17 -28 -19 -35 -4 -82 -23
-104 -41 -18 -16 -18 -15 -2 23 24 58 29 61 86 57 41 -2 50 -6 48 -20z m1157
-41 c-27 -12 -35 -12 -35 0 0 6 12 10 28 9 24 0 25 -1 7 -9z m355 -5 c0 -2 -8
-20 -17 -40 -15 -31 -21 -35 -52 -34 -20 1 -49 4 -65 8 -27 6 -24 8 45 38 76
32 89 36 89 28z m53 -93 c-21 -5 -25 2 -17 34 l7 29 13 -30 c10 -25 10 -31 -3
-33z m-1610 -92 c34 -22 47 -36 47 -53 0 -31 23 -51 85 -73 65 -23 427 -31
647 -15 165 12 447 39 489 46 l26 4 -23 -63 c-12 -34 -28 -90 -34 -123 -10
-50 -16 -63 -33 -65 -37 -6 -61 -52 -64 -126 -3 -59 -20 -303 -53 -777 -21
-292 -40 -690 -47 -940 -5 -225 -4 -268 11 -317 12 -41 16 -97 16 -213 0 -187
9 -214 71 -215 40 0 49 20 62 131 l11 102 17 -104 c10 -57 23 -117 29 -133 10
-28 10 -29 -20 -22 -17 3 -29 2 -26 -3 3 -5 18 -11 33 -14 20 -4 32 -15 40
-38 7 -18 12 -34 10 -35 -1 -1 -44 -10 -94 -19 -132 -22 -193 -44 -206 -72 -9
-20 -7 -28 11 -45 29 -30 104 -34 249 -14 100 14 767 76 945 89 70 4 113 29
98 57 -5 10 -22 20 -37 22 -24 3 -19 6 27 20 203 60 321 63 350 8 6 -11 18
-62 26 -113 8 -51 41 -173 73 -272 63 -194 103 -354 130 -532 l18 -112 -61 -5
c-339 -29 -1037 -55 -1811 -66 -407 -5 -775 -11 -819 -13 l-78 -2 6 60 c25
234 29 1528 5 1740 -5 44 -13 150 -19 235 -58 885 -144 1849 -186 2078 -5 27
-3 32 12 32 11 0 40 -14 67 -30z m2753 -2875 c11 -29 -2 -37 -19 -11 -15 23
-16 26 -2 26 9 0 18 -7 21 -15z m44 -29 c-1 -21 -1 -21 -15 -2 -19 25 -19 37
0 30 8 -4 15 -16 15 -28z m-990 -76 c-39 -10 -85 -13 -115 -9 -22 2 71 15 120
16 29 1 29 1 -5 -7z m-387 -27 c69 -8 66 -19 -6 -26 -62 -6 -76 0 -77 32 0 8
6 11 18 6 9 -3 39 -9 65 -12z m-1521 -871 c3 -252 11 -306 33 -207 l11 50 10
-69 10 -68 -43 5 c-24 2 -45 6 -47 8 -7 11 7 550 15 542 5 -5 10 -122 11 -261z
m162 -159 l6 -73 -28 -1 -27 -1 28 -11 c20 -8 27 -18 27 -39 0 -26 -2 -28 -27
-22 -16 4 -29 7 -30 8 0 1 -5 73 -11 161 -8 145 -8 162 8 180 9 11 21 29 25
40 8 19 10 5 29 -242z m181 -118 c66 -8 155 -15 198 -15 77 0 84 -3 68 -29 -7
-11 -39 -12 -167 -7 -219 9 -234 12 -234 42 0 13 3 24 8 24 4 0 61 -7 127 -15z"/>
</g>
</svg>
